<mxfile host="app.diagrams.net" modified="2023-09-17T14:13:26.526Z" agent="Mozilla/5.0 (Windows NT 10.0; Win64; x64) AppleWebKit/537.36 (KHTML, like Gecko) Chrome/116.0.0.0 Safari/537.36" etag="eYkSLoQk_hUzsmP1_Edm" version="21.7.5" type="device">
  <diagram name="Page-1" id="8FRMeguw1omTMyYOED8d">
    <mxGraphModel dx="1050" dy="534" grid="1" gridSize="10" guides="1" tooltips="1" connect="1" arrows="1" fold="1" page="1" pageScale="1" pageWidth="1169" pageHeight="827" math="0" shadow="0">
      <root>
        <mxCell id="0" />
        <mxCell id="1" parent="0" />
        <mxCell id="BukpN92SDK2_P1_yRI0g-49" value="" style="endArrow=classic;html=1;rounded=0;entryX=0.595;entryY=0.986;entryDx=0;entryDy=0;entryPerimeter=0;" parent="1" target="BukpN92SDK2_P1_yRI0g-40" edge="1">
          <mxGeometry width="50" height="50" relative="1" as="geometry">
            <mxPoint x="559.0000000000005" y="157" as="sourcePoint" />
            <mxPoint x="960.0000000000005" y="204" as="targetPoint" />
            <Array as="points">
              <mxPoint x="559" y="190" />
              <mxPoint x="959" y="190" />
            </Array>
          </mxGeometry>
        </mxCell>
        <mxCell id="BukpN92SDK2_P1_yRI0g-1" value="Admin" style="rounded=0;whiteSpace=wrap;html=1;fillColor=#dae8fc;strokeColor=#6c8ebf;fontSize=20;fontStyle=1" parent="1" vertex="1">
          <mxGeometry x="81" y="240" width="159" height="80" as="geometry" />
        </mxCell>
        <mxCell id="BukpN92SDK2_P1_yRI0g-3" value="2.0&lt;br&gt;Manage Messages" style="ellipse;whiteSpace=wrap;html=1;aspect=fixed;fillColor=#cdeb8b;strokeColor=#36393d;fontSize=16;" parent="1" vertex="1">
          <mxGeometry x="485" y="210" width="140" height="140" as="geometry" />
        </mxCell>
        <mxCell id="BukpN92SDK2_P1_yRI0g-5" value="" style="endArrow=classic;html=1;rounded=0;exitX=0.5;exitY=0;exitDx=0;exitDy=0;entryX=0.018;entryY=0.448;entryDx=0;entryDy=0;entryPerimeter=0;" parent="1" target="BukpN92SDK2_P1_yRI0g-23" edge="1">
          <mxGeometry width="50" height="50" relative="1" as="geometry">
            <mxPoint x="160.5" y="240" as="sourcePoint" />
            <mxPoint x="487.74" y="79.16000000000003" as="targetPoint" />
            <Array as="points">
              <mxPoint x="161" y="80" />
            </Array>
          </mxGeometry>
        </mxCell>
        <mxCell id="BukpN92SDK2_P1_yRI0g-23" value="1.0&lt;br&gt;Add &amp;amp; Manage Package" style="ellipse;whiteSpace=wrap;html=1;aspect=fixed;fillColor=#cdeb8b;strokeColor=#36393d;fontSize=16;" parent="1" vertex="1">
          <mxGeometry x="489" y="17" width="140" height="140" as="geometry" />
        </mxCell>
        <mxCell id="BukpN92SDK2_P1_yRI0g-24" value="3.0&lt;br&gt;Manage Booking" style="ellipse;whiteSpace=wrap;html=1;aspect=fixed;fillColor=#cdeb8b;strokeColor=#36393d;fontSize=16;" parent="1" vertex="1">
          <mxGeometry x="489" y="411" width="140" height="140" as="geometry" />
        </mxCell>
        <mxCell id="BukpN92SDK2_P1_yRI0g-25" value="" style="endArrow=classic;html=1;rounded=0;exitX=1;exitY=0.5;exitDx=0;exitDy=0;entryX=0;entryY=0.5;entryDx=0;entryDy=0;" parent="1" source="BukpN92SDK2_P1_yRI0g-1" target="BukpN92SDK2_P1_yRI0g-3" edge="1">
          <mxGeometry width="50" height="50" relative="1" as="geometry">
            <mxPoint x="540" y="270" as="sourcePoint" />
            <mxPoint x="590" y="220" as="targetPoint" />
          </mxGeometry>
        </mxCell>
        <mxCell id="BukpN92SDK2_P1_yRI0g-27" value="" style="endArrow=classic;html=1;rounded=0;exitX=0.5;exitY=1;exitDx=0;exitDy=0;" parent="1" source="BukpN92SDK2_P1_yRI0g-1" edge="1">
          <mxGeometry width="50" height="50" relative="1" as="geometry">
            <mxPoint x="540" y="270" as="sourcePoint" />
            <mxPoint x="490" y="480" as="targetPoint" />
            <Array as="points">
              <mxPoint x="161" y="480" />
            </Array>
          </mxGeometry>
        </mxCell>
        <mxCell id="BukpN92SDK2_P1_yRI0g-42" value="" style="group" parent="1" vertex="1" connectable="0">
          <mxGeometry x="840" y="50" width="200" height="60" as="geometry" />
        </mxCell>
        <mxCell id="BukpN92SDK2_P1_yRI0g-40" value="&lt;font style=&quot;font-size: 16px;&quot;&gt;packages&lt;/font&gt;" style="rounded=0;whiteSpace=wrap;html=1;fillColor=#cce5ff;strokeColor=#36393d;" parent="BukpN92SDK2_P1_yRI0g-42" vertex="1">
          <mxGeometry width="200" height="60" as="geometry" />
        </mxCell>
        <mxCell id="BukpN92SDK2_P1_yRI0g-41" value="" style="endArrow=none;html=1;rounded=0;" parent="BukpN92SDK2_P1_yRI0g-42" edge="1">
          <mxGeometry width="50" height="50" relative="1" as="geometry">
            <mxPoint x="40" y="60" as="sourcePoint" />
            <mxPoint x="40" as="targetPoint" />
          </mxGeometry>
        </mxCell>
        <mxCell id="BukpN92SDK2_P1_yRI0g-43" value="" style="group" parent="1" vertex="1" connectable="0">
          <mxGeometry x="840" y="250" width="200" height="60" as="geometry" />
        </mxCell>
        <mxCell id="BukpN92SDK2_P1_yRI0g-44" value="&lt;font style=&quot;font-size: 16px;&quot;&gt;&lt;span style=&quot;white-space: pre;&quot;&gt;&#x9;&lt;/span&gt;contectmessage&lt;/font&gt;" style="rounded=0;whiteSpace=wrap;html=1;fillColor=#cce5ff;strokeColor=#36393d;" parent="BukpN92SDK2_P1_yRI0g-43" vertex="1">
          <mxGeometry width="200" height="60" as="geometry" />
        </mxCell>
        <mxCell id="BukpN92SDK2_P1_yRI0g-45" value="" style="endArrow=none;html=1;rounded=0;" parent="BukpN92SDK2_P1_yRI0g-43" edge="1">
          <mxGeometry width="50" height="50" relative="1" as="geometry">
            <mxPoint x="40" y="60" as="sourcePoint" />
            <mxPoint x="40" as="targetPoint" />
          </mxGeometry>
        </mxCell>
        <mxCell id="BukpN92SDK2_P1_yRI0g-46" value="" style="group" parent="1" vertex="1" connectable="0">
          <mxGeometry x="840" y="450" width="200" height="60" as="geometry" />
        </mxCell>
        <mxCell id="BukpN92SDK2_P1_yRI0g-47" value="&lt;font style=&quot;font-size: 16px;&quot;&gt;booking&lt;/font&gt;" style="rounded=0;whiteSpace=wrap;html=1;fillColor=#cce5ff;strokeColor=#36393d;" parent="BukpN92SDK2_P1_yRI0g-46" vertex="1">
          <mxGeometry width="200" height="60" as="geometry" />
        </mxCell>
        <mxCell id="BukpN92SDK2_P1_yRI0g-48" value="" style="endArrow=none;html=1;rounded=0;" parent="BukpN92SDK2_P1_yRI0g-46" edge="1">
          <mxGeometry width="50" height="50" relative="1" as="geometry">
            <mxPoint x="40" y="60" as="sourcePoint" />
            <mxPoint x="40" as="targetPoint" />
          </mxGeometry>
        </mxCell>
        <mxCell id="BukpN92SDK2_P1_yRI0g-52" value="" style="endArrow=classic;html=1;rounded=0;" parent="1" edge="1">
          <mxGeometry width="50" height="50" relative="1" as="geometry">
            <mxPoint x="559.0000000000005" y="350" as="sourcePoint" />
            <mxPoint x="959" y="310" as="targetPoint" />
            <Array as="points">
              <mxPoint x="559" y="383" />
              <mxPoint x="959" y="383" />
            </Array>
          </mxGeometry>
        </mxCell>
        <mxCell id="BukpN92SDK2_P1_yRI0g-53" value="" style="endArrow=classic;html=1;rounded=0;" parent="1" edge="1">
          <mxGeometry width="50" height="50" relative="1" as="geometry">
            <mxPoint x="560.0000000000005" y="551" as="sourcePoint" />
            <mxPoint x="960" y="511" as="targetPoint" />
            <Array as="points">
              <mxPoint x="560" y="584" />
              <mxPoint x="960" y="584" />
            </Array>
          </mxGeometry>
        </mxCell>
        <mxCell id="BukpN92SDK2_P1_yRI0g-54" value="" style="endArrow=classic;html=1;rounded=0;exitX=0;exitY=0.5;exitDx=0;exitDy=0;" parent="1" source="BukpN92SDK2_P1_yRI0g-40" edge="1">
          <mxGeometry width="50" height="50" relative="1" as="geometry">
            <mxPoint x="700" y="240" as="sourcePoint" />
            <mxPoint x="630" y="80" as="targetPoint" />
          </mxGeometry>
        </mxCell>
        <mxCell id="BukpN92SDK2_P1_yRI0g-55" value="" style="endArrow=classic;html=1;rounded=0;exitX=0;exitY=0.5;exitDx=0;exitDy=0;" parent="1" source="BukpN92SDK2_P1_yRI0g-44" edge="1">
          <mxGeometry width="50" height="50" relative="1" as="geometry">
            <mxPoint x="835" y="279.47" as="sourcePoint" />
            <mxPoint x="625" y="279.47" as="targetPoint" />
          </mxGeometry>
        </mxCell>
        <mxCell id="BukpN92SDK2_P1_yRI0g-56" value="" style="endArrow=classic;html=1;rounded=0;exitX=0;exitY=0.5;exitDx=0;exitDy=0;" parent="1" edge="1">
          <mxGeometry width="50" height="50" relative="1" as="geometry">
            <mxPoint x="840" y="479.57" as="sourcePoint" />
            <mxPoint x="630" y="479.57" as="targetPoint" />
          </mxGeometry>
        </mxCell>
      </root>
    </mxGraphModel>
  </diagram>
</mxfile>
